<svg width="114" height="17" viewBox="0 0 114 17" fill="none" xmlns="http://www.w3.org/2000/svg">
<path d="M8.71184 4.32782e-05C6.98926 4.45864e-05 5.30535 0.498293 3.87293 1.43181C2.44051 2.36534 1.32389 3.69223 0.664192 5.24478C0.00449491 6.79733 -0.168662 8.50584 0.166606 10.1544C0.501874 11.8029 1.33052 13.3175 2.5478 14.5067C3.76509 15.6958 5.31637 16.5062 7.00559 16.8354C8.6948 17.1645 10.4461 16.9977 12.0382 16.356C13.6303 15.7143 14.9916 14.6265 15.9502 13.2301C16.9088 11.8336 17.4215 10.1913 17.4237 8.51063C17.4288 7.3925 17.207 6.28445 16.7711 5.25035C16.3352 4.21625 15.6939 3.27655 14.8841 2.48542C14.0742 1.69428 13.1119 1.06737 12.0526 0.640803C10.9932 0.214241 9.85784 -0.00353032 8.71184 4.32782e-05ZM8.71184 15.2462C7.34322 15.2462 6.00536 14.8501 4.86756 14.108C3.72976 13.3659 2.84317 12.3111 2.31996 11.0772C1.79676 9.8433 1.66047 8.48569 1.92834 7.17619C2.1962 5.86668 2.85619 4.66413 3.82478 3.72072C4.79337 2.77731 6.02702 2.13543 7.36962 1.87633C8.71223 1.61722 10.1034 1.75253 11.3672 2.26512C12.631 2.77772 13.7105 3.64457 14.4691 4.75597C15.2278 5.86737 15.6315 7.17337 15.6291 8.5087C15.6213 10.2952 14.8896 12.0063 13.5937 13.2685C12.2979 14.5307 10.5429 15.2416 8.71184 15.2462Z" fill="#E61771"/>
<path d="M6.4637 4.96758L12.6972 7.89957C12.8144 7.95311 12.9135 8.03815 12.983 8.1447C13.0525 8.25126 13.0894 8.37492 13.0894 8.5012C13.0894 8.62748 13.0525 8.75115 12.983 8.8577C12.9135 8.96426 12.8144 9.04929 12.6972 9.10284L6.4637 12.0339C6.36033 12.08 6.24672 12.1002 6.13331 12.0923C6.01989 12.0845 5.9103 12.0491 5.81459 11.9892C5.71889 11.9293 5.64013 11.8469 5.58555 11.7496C5.53096 11.6523 5.50231 11.5432 5.5022 11.4322V5.56921C5.50231 5.45828 5.53096 5.34915 5.58555 5.25184C5.64013 5.15452 5.71889 5.07215 5.81459 5.01226C5.9103 4.95238 6.01989 4.9169 6.13331 4.90909C6.24672 4.90129 6.36033 4.9214 6.4637 4.96758Z" fill="#E61771"/>
<path d="M28.3985 10.4131C27.0677 7.27383 25.7093 4.35695 24.3232 1.66246H20.5819V15.338H23.2223V5.15559C24.0129 6.78436 25.3087 9.76006 27.1099 14.0827H29.2503C30.8086 10.4922 32.1397 7.51005 33.2831 5.15559V15.338H35.965V1.66246H32.4125C30.8518 4.68412 29.5138 7.601 28.3985 10.4131Z" fill="#E61771"/>
<path d="M42.2281 5.17583C38.9671 5.17583 37.301 6.46973 37.301 10.2955C37.301 12.2383 37.7378 13.509 38.6311 14.3131C39.5244 15.1172 40.7933 15.5096 42.4356 15.5096C43.7867 15.5037 45.1307 15.3188 46.4309 14.9601L46.0148 13.0375C44.9471 13.3042 43.85 13.4424 42.7479 13.4492C41.7706 13.4492 41.068 13.2728 40.648 12.9392C40.232 12.5863 40.0245 12.002 40.0037 10.982H46.9052C46.9882 8.57158 46.6977 7.17645 45.8656 6.31354C45.0553 5.45062 43.995 5.17583 42.2281 5.17583ZM40.0215 9.11826C40.1638 7.57561 40.728 7.09354 42.3289 7.09354C43.0977 7.09354 43.6135 7.23045 43.8883 7.52548C44.158 7.80026 44.331 8.35658 44.3656 9.11344L40.0215 9.11826Z" fill="#E61771"/>
<path d="M53.5231 7.29504C54.3605 7.29541 55.1911 7.44169 55.9758 7.72698L56.5578 5.64731C55.6684 5.33299 54.5814 5.17583 53.3353 5.17583C51.6099 5.17583 50.3204 5.56825 49.427 6.35307C48.5377 7.1186 48.0969 8.35368 48.0969 10.2955C48.0969 12.2373 48.5337 13.509 49.427 14.3131C50.3204 15.1172 51.6099 15.5096 53.3353 15.5096C54.5824 15.5096 55.6635 15.3332 56.5578 14.9996L55.9758 12.9199C55.196 13.2264 54.3637 13.3861 53.5231 13.3904C52.525 13.3904 51.8185 13.1745 51.3817 12.7628C50.9666 12.3308 50.7581 11.5903 50.7581 10.335C50.8619 7.56886 51.5477 7.29504 53.5231 7.29504Z" fill="#E61771"/>
<path d="M65.4504 5.52871C64.9306 5.29346 64.2448 5.17583 63.3505 5.17583C62.339 5.18138 61.3427 5.41639 60.4403 5.86231V1.17267H57.8631V15.338H60.4413V8.2563C60.4413 7.70674 61.3307 7.37314 62.478 7.37314C63.9751 7.37314 64.5986 7.88317 64.5986 9.90404V15.338H67.1768V9.70735C67.1758 7.2748 66.5107 5.97801 65.4504 5.52871Z" fill="#E61771"/>
<path d="M74.015 13.4107C72.8717 13.4107 72.4142 12.8418 72.4142 11.6646V7.47052H75.9272V5.34938H72.4132V2.66325L69.836 3.66404V5.35131H68.0691V7.47245H69.836V11.8825C69.836 13.295 70.1058 14.2562 70.6671 14.7663C71.2283 15.257 72.1227 15.5116 73.3697 15.5116C74.3586 15.5184 75.3419 15.3659 76.2799 15.0603L75.8224 13.1378C75.2368 13.3144 74.6279 13.4063 74.015 13.4107Z" fill="#E61771"/>
<path d="M86.4207 14.828C84.8715 15.2907 83.2591 15.5206 81.6389 15.5096C79.959 15.5096 78.7731 15.2744 78.1259 14.8232C77.4816 14.3526 77.1693 13.5698 77.1693 12.2768C77.1693 10.9627 77.5023 10.0988 78.1881 9.66686C78.8739 9.21564 79.9343 8.99967 81.3276 8.99967C82.2075 9.01014 83.0843 9.10215 83.9463 9.27445C83.9463 8.39129 83.7803 7.92464 83.4522 7.64696C83.1202 7.35289 82.4126 7.21502 81.3108 7.21502C80.2228 7.20046 79.1401 7.36641 78.1091 7.70577L77.6308 5.70419C79.0094 5.35601 80.4273 5.17817 81.8513 5.17487C83.4729 5.17487 84.637 5.46894 85.3436 6.04261C86.0709 6.60857 86.4207 7.60839 86.4207 9.0633V14.828ZM83.9502 10.9232C83.2581 10.7961 82.5546 10.737 81.8503 10.7467C80.291 10.7467 79.874 10.9395 79.874 12.1794C79.874 12.8466 79.9985 13.1754 80.2485 13.3721C80.4975 13.5485 81.0173 13.6469 81.8296 13.6469C82.5436 13.6582 83.2563 13.5808 83.9502 13.4165V10.9232Z" fill="#E61771"/>
<path d="M92.1423 13.9062C92.1423 15.2011 91.7599 15.4364 90.5336 15.4364C89.3675 15.4364 88.9851 15.2011 88.9851 13.9062C88.9851 12.7097 89.3675 12.5323 90.5336 12.5323C91.7609 12.5343 92.1423 12.7097 92.1423 13.9062Z" fill="#E61771"/>
<path d="M101.072 15.338C98.7592 12.0599 97.3511 10.2955 96.7878 10.0602V15.338H94.2936V1.1717H96.7878V10.0602C97.3511 9.60901 98.7385 7.99984 100.749 5.35131H103.705C101.735 7.94103 100.326 9.4721 99.784 9.88283C100.307 10.1971 101.835 12.0213 104.007 15.338H101.072Z" fill="#E61771"/>
<path d="M114 5.35131V5.84207C112.552 8.11843 110.079 11.5518 108.731 13.2198H113.859V15.3409H104.83V14.8482C106.78 12.4378 109.178 9.07969 110.179 7.47052H105.172V5.34938L114 5.35131Z" fill="#E61771"/>
</svg>
